<svg width="8" height="14" viewBox="0 0 8 14" fill="none" xmlns="http://www.w3.org/2000/svg">
<path d="M0.287744 1.70828L5.56875 6.97732L0.287744 12.2473C0.10163 12.4382 -0.00181089 12.6948 2.40008e-05 12.9614C0.00185889 13.228 0.108786 13.4831 0.297509 13.6715C0.486233 13.8598 0.741589 13.9662 1.0082 13.9674C1.27482 13.9687 1.53119 13.8648 1.7217 13.6783L7.69766 7.71432C7.88698 7.51586 7.9927 7.25209 7.9927 6.97781C7.9927 6.70352 7.88698 6.43976 7.69766 6.2413L1.7217 0.277308C1.53026 0.0961042 1.27569 -0.00335052 1.01211 8.61919e-05C0.74853 0.0035229 0.496737 0.109546 0.310083 0.295679C0.123428 0.481813 0.0166481 0.733405 0.0124752 0.996973C0.00830222 1.26054 0.107076 1.51633 0.287744 1.70828Z" fill="white"/>
</svg>
