<svg width="78" height="56" viewBox="0 0 78 56" fill="none" xmlns="http://www.w3.org/2000/svg">
<path d="M18.199 40.2739C13.9238 40.2739 10.4471 43.7506 10.4471 48.0258C10.4471 52.3011 13.9238 55.7778 18.199 55.7778C22.4742 55.7778 25.9509 52.3011 25.9509 48.0258C25.9509 43.7506 22.4741 40.2739 18.199 40.2739ZM18.199 53.1937C15.3488 53.1937 13.0311 50.8759 13.0311 48.0258C13.0311 45.1757 15.349 42.858 18.199 42.858C21.0491 42.858 23.3669 45.1758 23.3669 48.0258C23.3669 50.8759 21.0491 53.1937 18.199 53.1937Z" fill="#EE1F23"/>
<path d="M62.1266 40.2739C57.8514 40.2739 54.3746 43.7506 54.3746 48.0258C54.3746 52.3011 57.8514 55.7778 62.1266 55.7778C66.4018 55.7778 69.8785 52.3011 69.8785 48.0258C69.8785 43.7506 66.4018 40.2739 62.1266 40.2739ZM62.1266 53.1937C59.2764 53.1937 56.9587 50.8759 56.9587 48.0258C56.9587 45.1757 59.2765 42.858 62.1266 42.858C64.9768 42.858 67.2945 45.1758 67.2945 48.0258C67.2945 50.8759 64.9768 53.1937 62.1266 53.1937Z" fill="#EE1F23"/>
<path d="M77.4249 33.115L65.7971 15.0271C65.5594 14.6576 65.1498 14.4341 64.7104 14.4341H50.4987C49.7842 14.4341 49.2067 15.0129 49.2067 15.726V48.0256C49.2067 48.7401 49.7842 49.3176 50.4987 49.3176H55.6666V46.7335H51.7906V17.0181H64.005L75.0464 34.1938V46.7339H68.5864V49.3177H76.3383C77.0528 49.3177 77.6302 48.7403 77.6302 48.0258V33.8139C77.6304 33.5671 77.5594 33.3229 77.4249 33.115Z" fill="#EE1F23"/>
<path d="M56.9587 31.2299V22.1861H67.2946V19.6021H55.6667C54.9522 19.6021 54.3748 20.1809 54.3748 20.894V32.5219C54.3748 33.2363 54.9522 33.8138 55.6667 33.8138H75.0465V31.2298H56.9587V31.2299Z" fill="#EE1F23"/>
<path d="M50.4986 5.39038H1.40308C0.689965 5.39038 0.111145 5.9692 0.111145 6.68232V48.0259C0.111145 48.7404 0.689965 49.3179 1.40308 49.3179H11.739V46.7339H2.69517V7.97425H49.2067V46.7339H24.6588V49.3179H50.4986C51.2131 49.3179 51.7906 48.7404 51.7906 48.0259V6.68232C51.7906 5.9692 51.2131 5.39038 50.4986 5.39038Z" fill="#EE1F23"/>
<path d="M9.15497 41.5659H1.40305V44.1499H9.15497V41.5659Z" fill="#EE1F23"/>
<path d="M49.2067 41.5659H27.2429V44.1499H49.2067V41.5659Z" fill="#EE1F23"/>
<path d="M76.3383 41.5659H71.1704V44.1499H76.3383V41.5659Z" fill="#EE1F23"/>
<path d="M50.4986 10.5581H5.27905V13.1421H50.4986V10.5581Z" fill="#EE1F23"/>
<path d="M19.491 46.7336H16.9069V49.3177H19.491V46.7336Z" fill="#EE1F23"/>
<path d="M63.4186 46.7336H60.8346V49.3177H63.4186V46.7336Z" fill="#EE1F23"/>
<path d="M23.3669 0.222168H5.27905V2.80619H23.3669V0.222168Z" fill="#EE1F23"/>
<path d="M2.69514 0.222168H0.111115V2.80619H2.69514V0.222168Z" fill="#EE1F23"/>
</svg>
