<svg width="63" height="74" viewBox="0 0 63 74" fill="none" xmlns="http://www.w3.org/2000/svg">
<path d="M59.0319 22.6774H56.6472C54.6752 22.6774 53.0703 24.2839 53.0703 26.2581V26.4622C51.6825 26.9551 50.6857 28.2823 50.6857 29.8387V31.2364C50.6857 32.1924 51.0577 33.0923 51.7337 33.7691L53.0107 35.0474L51.7254 45.9838C48.2391 40.3503 42.6114 36.2779 36.1014 34.7824L35.5685 33.1806C37.308 32.6996 38.7352 31.4691 39.4494 29.8387H39.955C42.5852 29.8387 44.7242 27.6975 44.7242 25.0645V19.0968C46.0393 19.0968 47.1088 18.0262 47.1088 16.7097V14.3226C47.1088 13.0061 46.0393 11.9355 44.7242 11.9355H44.5167C43.3769 5.06064 37.5024 0 30.4165 0C23.3306 0 17.4562 5.06064 16.3163 11.9355H16.1088C14.7937 11.9355 13.7242 13.0061 13.7242 14.3226V16.7097C13.7242 18.0262 14.7937 19.0968 16.1088 19.0968V25.0645C16.1088 27.6975 18.2478 29.8387 20.8781 29.8387H21.3836C22.099 31.4691 23.5262 32.7008 25.2646 33.1806L24.7304 34.7836C22.0346 35.4018 19.4652 36.5453 17.1938 38.1136L14.845 30.8126C14.8378 30.7733 14.839 30.7339 14.8307 30.6945C14.2322 28.1797 10.6779 26.8644 6.71944 27.7046C4.2621 28.2262 2.20895 29.4663 1.22649 31.0191C0.664911 31.9071 0.481296 32.8524 0.695911 33.7547C0.818718 34.2727 1.07268 34.737 1.42441 35.144L9.59409 47.3934C8.39582 50.1505 7.76271 53.0687 7.76271 56.0968C7.76271 61.1861 10.6767 65.5986 14.9165 67.7768V69.2258C14.9165 71.8588 17.0555 74 19.6858 74H23.2627H26.8396H45.9165V58.3729C47.6525 60.6752 50.3495 62.0645 53.31 62.0645C58.4369 62.0645 62.6088 57.8883 62.6088 52.7572V26.2581C62.6088 24.2839 61.0039 22.6774 59.0319 22.6774ZM53.0703 29.8387C53.0703 29.1811 53.6045 28.6452 54.2626 28.6452H55.4549V26.2581C55.4549 25.6004 55.9891 25.0645 56.6472 25.0645H59.0319C59.69 25.0645 60.2242 25.6004 60.2242 26.2581V33.4194H54.7562L53.4197 32.0814C53.1943 31.8558 53.0703 31.555 53.0703 31.2364V29.8387ZM33.9934 69.2258V71.6129H30.9459C31.3561 70.9075 31.6088 70.0995 31.6088 69.2258H33.9934ZM35.1857 66.8387H28.0319V61.3651L29.3685 60.0271C29.5914 59.8051 29.8979 59.6774 30.2114 59.6774H31.6088C32.267 59.6774 32.8011 60.2133 32.8011 60.871V62.0645H35.1857C35.8439 62.0645 36.378 62.6004 36.378 63.2581V65.6452C36.378 66.3028 35.8439 66.8387 35.1857 66.8387ZM33.1338 33.4194L33.8492 35.5677L30.4165 39.8633L26.9827 35.5666L27.6981 33.4182H33.1338V33.4194ZM26.9946 39.4026C26.9421 39.4014 26.8921 39.3871 26.8396 39.3871H19.6858C19.6738 39.3871 19.6631 39.3907 19.6512 39.3907C21.3705 38.3666 23.24 37.6016 25.1918 37.1468L26.9946 39.4026ZM19.6858 41.7742H22.7106C22.3029 42.4772 22.0704 43.2924 22.0704 44.1613V45.3548H24.455V44.1613C24.455 42.8448 25.5245 41.7742 26.8396 41.7742C28.1547 41.7742 29.2242 42.8448 29.2242 44.1613C29.2242 45.4778 28.1547 46.5484 26.8396 46.5484H19.6858C18.3706 46.5484 17.3012 45.4778 17.3012 44.1613C17.3012 42.8448 18.3706 41.7742 19.6858 41.7742ZM17.3012 48.2719C18.0058 48.6825 18.813 48.9355 19.6858 48.9355H26.8396C27.7124 48.9355 28.5196 48.6825 29.2242 48.2719V57.4455C28.6495 57.6114 28.1166 57.9038 27.6826 58.3395L26.346 59.6774H22.0704C20.4011 59.6774 18.7689 59.2788 17.3012 58.5495V48.2719ZM33.9934 58.2153C33.3591 57.6448 32.5269 57.2903 31.6088 57.2903V44.1613C31.6088 43.5979 31.4932 43.0644 31.3131 42.5619L33.9934 39.2093V58.2153ZM39.955 27.4516V22.6774C41.2701 22.6774 42.3396 23.748 42.3396 25.0645C42.3396 26.381 41.2701 27.4516 39.955 27.4516ZM42.3396 20.9539C41.6349 20.5434 40.8277 20.2903 39.955 20.2903V19.0968H42.3396V20.9539ZM42.0963 11.9355H33.9934V2.93374C38.089 4.20368 41.2307 7.60529 42.0963 11.9355ZM31.6088 2.44677V11.9355H29.2242V2.44677C29.6165 2.40858 30.0135 2.3871 30.4165 2.3871C30.8195 2.3871 31.2166 2.40858 31.6088 2.44677ZM26.8396 2.93374V11.9355H18.7367C19.6023 7.60529 22.744 4.20368 26.8396 2.93374ZM16.1077 14.3226H44.7242V16.7097H16.1088L16.1077 14.3226ZM20.8781 19.0968V20.2903C20.0053 20.2903 19.1981 20.5434 18.4935 20.9539V19.0968H20.8781ZM18.4935 25.0645C18.4935 23.748 19.563 22.6774 20.8781 22.6774V27.4516C19.563 27.4516 18.4935 26.381 18.4935 25.0645ZM23.2627 27.4516V19.0968H37.5703V27.4516C37.5703 29.4257 35.9655 31.0323 33.9934 31.0323H26.8396C24.8675 31.0323 23.2627 29.4257 23.2627 27.4516ZM3.24029 32.2974C3.86744 31.3068 5.42698 30.4212 7.21544 30.0404C7.89625 29.896 8.53294 29.8327 9.1124 29.8327C10.7995 29.8327 12.0014 30.3675 12.3924 30.9785L12.5093 31.3414C12.5379 31.5861 12.4747 31.8558 12.2851 32.1554C11.658 33.146 10.0984 34.0316 8.30997 34.4124C5.84906 34.934 3.99025 34.3909 3.29991 33.6616L3.06621 33.3107C3.05191 33.2749 3.02329 33.2415 3.01375 33.2057C2.95175 32.9384 3.02806 32.634 3.24029 32.2974ZM6.45713 36.9988C7.20828 36.9988 7.99878 36.9176 8.80597 36.7458C10.722 36.3388 12.3853 35.4925 13.4941 34.404L15.7631 41.4567C15.2313 42.2266 14.9165 43.1563 14.9165 44.1613V51.0767L5.49256 36.9475C5.80613 36.9785 6.12686 36.9988 6.45713 36.9988ZM10.1473 56.0968C10.1473 53.9257 10.499 51.8131 11.1918 49.7925L14.9165 55.3771V56.9179C14.3967 56.4525 13.9102 55.9464 13.4858 55.3806L11.5781 56.8129C14.0414 60.1011 17.9641 62.0645 22.0704 62.0645H25.6473V66.8387H20.8781C14.9607 66.8387 10.1473 62.0192 10.1473 56.0968ZM23.2627 71.6129H19.6858C18.3706 71.6129 17.3012 70.5423 17.3012 69.2258V68.7174C18.4398 69.0408 19.6369 69.2258 20.8781 69.2258H29.2242C29.2242 70.5423 28.1547 71.6129 26.8396 71.6129H23.2627ZM53.31 59.6774C50.675 59.6774 48.3059 58.2117 47.1267 55.8521L45.9165 53.428V48.9355H43.5319V71.6129H36.378V69.0062C37.7623 68.5121 38.7627 67.1992 38.7627 65.6452V63.2581C38.7627 61.7041 37.7623 60.3912 36.378 59.897V37.3151C42.8439 39.0577 48.2653 43.6266 51.0553 49.7698L51.2354 50.1648L50.6953 54.7648L53.0632 55.0429L55.3226 35.8065H60.2242V52.7572C60.2242 56.573 57.1218 59.6774 53.31 59.6774Z" fill="#EE1F23"/>
</svg>
