<svg width="74" height="74" viewBox="0 0 74 74" fill="none" xmlns="http://www.w3.org/2000/svg">
<path d="M72.8979 45.6396C72.4319 45.4544 71.8998 45.5702 71.5535 45.9327L66.3335 51.4196V18.8288H66.3396L71.3202 13.451C71.7784 12.9559 71.7482 12.1821 71.2525 11.7239C71.2525 11.7239 71.2519 11.7233 71.2514 11.7228L69.4588 10.0544L71.9496 7.36548C72.4073 6.86977 72.3765 6.09656 71.8808 5.6389L66.503 0.658326C66.0078 0.200105 65.2346 0.229758 64.7764 0.725465L56.0864 10.1087H13.7779C13.7739 6.73494 11.0403 4.00127 7.66657 3.99736H6.44464C3.07092 4.00127 0.33726 6.73494 0.333344 10.1087V62.6642C0.333344 63.339 0.880524 63.8862 1.55583 63.8862H20.0576L17.4906 66.9684C17.0593 67.4876 17.1298 68.258 17.6484 68.6894L23.2841 73.3818C23.8028 73.8137 24.5738 73.7432 25.0057 73.2246L25.0062 73.224L31.2619 65.7084C31.6938 65.1881 31.9719 64.5564 32.0636 63.8862H54.4594L47.1139 71.5998C46.649 72.0888 46.6685 72.8626 47.1575 73.3276C47.3847 73.5435 47.6862 73.6644 48.0001 73.6638H72.4442C73.1195 73.6638 73.6667 73.1166 73.6667 72.4419V46.7753C73.6667 46.2751 73.3623 45.8253 72.8979 45.6396ZM68.6962 12.675L66.3335 15.2308V13.4331L67.7999 11.8442L68.6962 12.675ZM63.889 12.4574V12.4747L53.5525 23.646L49.9628 20.3249L62.4148 6.86809L66.0045 10.1892L63.9036 12.4574H63.889ZM51.2049 24.802L48.3934 25.6222L48.9938 22.7548L51.2049 24.802ZM65.7359 3.28009L69.3239 6.59954L67.6634 8.39718L64.0748 5.07437L65.7359 3.28009ZM6.44464 6.44176H7.66657C9.69192 6.44176 11.3335 8.0833 11.3335 10.1087V56.5848C10.2816 55.7758 8.99311 55.3349 7.66657 55.3305H6.44464C5.11753 55.3349 3.82959 55.7758 2.77775 56.5848V10.1087C2.77775 8.0833 4.41929 6.44176 6.44464 6.44176ZM6.44464 57.7749H7.66657C9.69192 57.7749 11.3335 59.417 11.3335 61.4418H2.77775C2.77775 59.417 4.41929 57.7749 6.44464 57.7749ZM29.3842 64.1452L28.6021 65.084L24.8451 61.9565L25.6262 61.0166C26.0581 60.4979 26.8285 60.4274 27.3471 60.8593C27.3477 60.8593 27.3477 60.8599 27.3483 60.8599L29.2265 62.4198C29.7457 62.8511 29.8167 63.6215 29.3854 64.1407C29.3848 64.1413 29.3848 64.1413 29.3842 64.1419V64.1452ZM23.9102 70.7209L20.1527 67.5933L23.2808 63.8347L27.0378 66.9628L23.9102 70.7209ZM31.55 61.4418C31.3469 61.1033 31.0901 60.8006 30.7897 60.5449L28.9115 58.9817C27.355 57.6859 25.0432 57.8968 23.7474 59.4533L22.0891 61.4418H13.7779V12.5531H53.825L47.3388 19.5623C47.2459 19.667 47.1721 19.7878 47.1212 19.9182C47.1066 19.9534 47.0954 19.9864 47.0831 20.0234C47.0714 20.0597 47.0529 20.0967 47.044 20.1358L45.5848 27.1121C45.4472 27.7728 45.8713 28.4202 46.532 28.5578C46.7284 28.5986 46.9315 28.5908 47.1234 28.5349L53.9682 26.5403C54.0001 26.5302 54.0269 26.5118 54.0572 26.5011C54.0879 26.4899 54.1198 26.4743 54.1528 26.458C54.2899 26.3959 54.4141 26.3081 54.5193 26.2001L63.889 16.0739V53.986L56.788 61.4418H31.55ZM71.2223 71.2194H50.8513L71.2223 49.8307V71.2194Z" fill="#EE1F23"/>
<path d="M57.8708 68.0208C58.0599 68.4773 58.5059 68.7749 59.0004 68.7749H67.5556C68.2309 68.7749 68.7781 68.2278 68.7781 67.553V58.9973C68.7781 58.322 68.2303 57.7754 67.5556 57.7754C67.2316 57.7754 66.9206 57.9041 66.6917 58.1335L58.136 66.6886C57.7864 67.0383 57.6817 67.5642 57.8708 68.0208ZM66.3337 61.9475V66.3305H61.9506L66.3337 61.9475Z" fill="#EE1F23"/>
<path d="M54.1109 46.7754H45.5558V33.3309C45.5541 33.0064 45.4249 32.6953 45.196 32.4653L37.8628 25.1321C37.3856 24.6549 36.6118 24.6549 36.1346 25.1321L28.8013 32.4653C28.5736 32.6958 28.4455 33.0069 28.4444 33.3309V46.7754H19.8892C19.2139 46.7754 18.6667 47.3226 18.6667 47.9973C18.6667 48.6726 19.2139 49.2198 19.8892 49.2198H54.1115C54.7862 49.2198 55.3334 48.6726 55.3334 47.9973C55.3334 47.3226 54.7862 46.7754 54.1109 46.7754ZM37.0001 27.7253L41.3831 32.1084H32.617L37.0001 27.7253ZM30.8888 34.5528H43.1114V46.7754H30.8888V34.5528Z" fill="#EE1F23"/>
<path d="M35.7775 19.8862H38.2225V22.3306H35.7775V19.8862Z" fill="#EE1F23"/>
<path d="M35.7775 51.6641H38.2225V54.1085H35.7775V51.6641Z" fill="#EE1F23"/>
</svg>
